<?xml version="1.0" standalone="no"?>
<!DOCTYPE svg PUBLIC "-//W3C//DTD SVG 20010904//EN"
 "http://www.w3.org/TR/2001/REC-SVG-20010904/DTD/svg10.dtd">
<svg version="1.0" xmlns="http://www.w3.org/2000/svg"
 width="310.000000pt" height="310.000000pt" viewBox="0 0 310.000000 310.000000"
 preserveAspectRatio="xMidYMid meet">
<metadata>
Created by potrace 1.15, written by Peter Selinger 2001-2017
</metadata>
<g transform="translate(0.000000,310.000000) scale(0.100000,-0.100000)"
fill="#000000" stroke="none">
<path d="M1536 3032 c-3 -31 -11 -133 -16 -227 -28 -493 -58 -781 -100 -943
-10 -41 -20 -75 -22 -77 -2 -2 -25 -5 -52 -6 -44 -3 -50 -1 -58 21 -21 57 -59
357 -93 735 -22 240 -26 264 -35 240 -4 -11 -10 -58 -14 -105 -28 -345 -86
-774 -121 -897 -14 -48 -18 -52 -62 -67 -37 -13 -48 -13 -55 -4 -23 36 -62
233 -88 443 -25 208 -41 308 -47 302 -10 -11 -43 -336 -73 -732 -6 -77 -13
-156 -15 -176 l-5 -36 89 -42 c173 -81 340 -227 466 -406 164 -234 250 -500
290 -891 8 -83 15 -154 15 -157 0 -4 4 -7 8 -7 5 0 16 75 25 166 44 417 135
683 321 931 119 159 270 286 433 364 l83 40 0 43 c0 24 -4 88 -9 142 -5 55
-15 164 -21 244 -6 80 -20 227 -31 327 -10 100 -19 185 -19 190 0 4 -5 1 -10
-8 -5 -9 -16 -72 -24 -140 -39 -324 -60 -451 -92 -556 -9 -29 -20 -53 -25 -53
-4 0 -27 9 -52 19 -30 13 -46 27 -50 43 -45 201 -73 394 -112 768 -8 85 -18
181 -22 214 -9 84 -18 51 -32 -109 -34 -395 -54 -567 -88 -758 l-15 -88 -57 3
-56 3 -13 50 c-37 145 -71 426 -92 760 -20 332 -33 486 -40 490 -4 3 -10 -21
-14 -53z"/>
</g>
</svg>
